<?xml version="1.0" encoding="utf-8"?>
<!-- Generator: Adobe Illustrator 27.5.0, SVG Export Plug-In . SVG Version: 6.00 Build 0)  -->
<svg version="1.1" id="Layer_1" xmlns="http://www.w3.org/2000/svg" xmlns:xlink="http://www.w3.org/1999/xlink" x="0px" y="0px"
	 viewBox="0 0 4000 4000" style="enable-background:new 0 0 4000 4000;" xml:space="preserve">
<g>
	<rect x="1999.996" y="2000" style="fill-rule:evenodd;clip-rule:evenodd;fill:#FFFFFF;" width="2000.004" height="1999.998"/>
	<rect y="2000" style="fill-rule:evenodd;clip-rule:evenodd;" width="1999.996" height="1999.998"/>
	<rect x="1999.996" y="0.002" style="fill-rule:evenodd;clip-rule:evenodd;" width="2000.004" height="1999.998"/>
	<rect y="0.002" style="fill-rule:evenodd;clip-rule:evenodd;fill:#FFFFFF;" width="1999.996" height="1999.998"/>
	<g>
		<defs>
			<path id="SVGID_1_" d="M1993.746,503.113c209.823,0,379.903,170.088,379.903,379.9c0,209.82-170.081,379.908-379.903,379.908
				c-209.81,0-379.895-170.089-379.895-379.908C1613.851,673.202,1783.936,503.113,1993.746,503.113 M2482.8,3054.805
				l-119.731-99.62c-34.912-46.128-67.094-105.652-96.281-177.137l-1.506-3.708c-34.583-85.46-60.331-175.087-81.604-264.675
				c0,0-48.161-208.678-184.607-211.357c-80.985-1.582-132.597,57.34-164.547,124.923c-9.99,21.08-18.836,44.527-26.546,70.115
				l-349.833-291.062c35.738-406.427-7.337-811.545-363.342-1094.508c-208.671-165.87-202.006-287.619-128.43-383.935
				c73.568-96.315,274.219-165.883,394.613,69.563c120.394,235.437,212.671,659.49,539.075,662.168
				c326.4,2.673,470.854-163.2,585.909-329.075c115.039-165.868,259.505-347.792,460.152-238.1
				c200.659,109.687,181.946,377.22-93.624,484.238c-275.574,107.003-580.538,173.881-532.381,478.87
				c36.259,229.63,85.734,418.805,252.995,600.227l6.535,7.082c144.466,155.165,321.045,412.002,101.668,561.818
				c-3.414,2.328-6.812,4.568-10.197,6.719l-0.061,0.042l-0.159,0.1c-3.341,2.117-6.673,4.148-9.99,6.09l-0.028,0.019l-0.322,0.188
				c-3.202,1.872-6.388,3.652-9.57,5.367l-0.228,0.128l-0.468,0.25c-3.007,1.602-6.002,3.142-8.992,4.612l-1.241,0.595
				c-2.832,1.37-5.652,2.678-8.472,3.927l-1.624,0.717c-2.718,1.177-5.432,2.297-8.134,3.36l-1.88,0.742
				c-2.535,0.968-5.058,1.88-7.581,2.75l-2.808,0.953c-2.356,0.785-4.7,1.522-7.052,2.212
				C2560.567,3071.765,2520.597,3069.828,2482.8,3054.805z"/>
		</defs>
		<clipPath id="SVGID_00000016766523039141153560000010035909247321587089_">
			<use xlink:href="#SVGID_1_"  style="overflow:visible;"/>
		</clipPath>
		
			<linearGradient id="SVGID_00000018940342041641651620000008367431373910570671_" gradientUnits="userSpaceOnUse" x1="3031.4353" y1="3466.7791" x2="-928.7407" y2="-3085.5598">
			<stop  offset="0" style="stop-color:#0000FF"/>
			<stop  offset="1" style="stop-color:#00FFFF"/>
		</linearGradient>
		
			<rect x="886.133" y="503.113" style="clip-path:url(#SVGID_00000016766523039141153560000010035909247321587089_);fill:url(#SVGID_00000018940342041641651620000008367431373910570671_);" width="2260.649" height="2568.652"/>
	</g>
	<path style="opacity:0.3;fill-rule:evenodd;clip-rule:evenodd;fill:#1E003D;" d="M2019.137,1262.057
		c-125.191-55.161-246.501-115.908-354.142-188.57c-20.76-35.755-35.836-75.213-44.039-117.132
		c161.349,114.207,361.633,189.59,565.804,253.922C2137.04,1239.653,2080.054,1258.037,2019.137,1262.057 M2558.403,1486.938
		c-8.219-3.752-16.435-7.469-24.65-11.125c-87.134-38.817-179.72-75.79-273.665-113.572c43.278-27.722,80.737-60.137,114.262-95.163
		c93.168,27.6,184.888,54.685,271.745,83.935c44.535,14.995,89.262,31.203,134.005,48.84
		C2703.194,1428.128,2626.595,1455.2,2558.403,1486.938z"/>
	<g>
		<defs>
			<path id="SVGID_00000152261067812304403010000011265791017609931685_" d="M2186.76,1210.277
				c-204.171-64.332-404.456-139.715-565.804-253.922c-4.647-23.732-7.104-48.247-7.104-73.342
				c0-209.812,170.085-379.9,379.895-379.9c209.823,0,379.903,170.088,379.903,379.9
				C2373.649,1022.363,2298.613,1144.163,2186.76,1210.277 M2780.098,1399.853c-44.743-17.637-89.469-33.845-134.005-48.84
				c-86.857-29.25-178.577-56.335-271.745-83.935c42.191-44.097,78.157-92.333,111.621-140.58
				c115.039-165.868,259.505-347.792,460.152-238.1c200.659,109.687,181.946,377.22-93.624,484.238
				C2828.503,1381.953,2804.285,1390.962,2780.098,1399.853z"/>
		</defs>
		<clipPath id="SVGID_00000152230642347856196340000003451608031710068618_">
			<use xlink:href="#SVGID_00000152261067812304403010000011265791017609931685_"  style="overflow:visible;"/>
		</clipPath>
		
			<linearGradient id="SVGID_00000160891651592919053090000016460143592307964043_" gradientUnits="userSpaceOnUse" x1="3974.4155" y1="3859.0806" x2="1556.2556" y2="-551.5822">
			<stop  offset="0" style="stop-color:#0000FF"/>
			<stop  offset="1" style="stop-color:#00FFFF"/>
		</linearGradient>
		
			<rect x="1613.851" y="503.113" style="opacity:0.3;clip-path:url(#SVGID_00000152230642347856196340000003451608031710068618_);fill:url(#SVGID_00000160891651592919053090000016460143592307964043_);" width="1532.931" height="896.74"/>
	</g>
	<path style="opacity:0.3;fill-rule:evenodd;clip-rule:evenodd;fill:#FFFFFF;" d="M2443.188,1185.677
		c114.063,46.45,248.93,102.515,409.583,181.115c2.14,1.05,4.232,2.117,6.364,3.17c-2.209,0.893-4.391,1.805-6.637,2.675
		c-23.995,9.316-48.214,18.325-72.4,27.217c-44.743-17.637-89.469-33.845-134.005-48.84
		c-86.857-29.25-178.577-56.335-271.745-83.935C2399.202,1241.098,2421.904,1213.688,2443.188,1185.677 M1896.375,515.732
		c-49.255,50.51-65.507,117.365-33.443,207.142c81.535,228.293,202.063,304.687,425.863,399.44
		c-28.438,35.027-62.996,64.88-102.034,87.963c-204.171-64.332-404.456-139.715-565.804-253.922
		c-4.647-23.732-7.104-48.247-7.104-73.342C1613.851,706.863,1733.74,558.733,1896.375,515.732z"/>
	<path style="opacity:0.3;fill-rule:evenodd;clip-rule:evenodd;fill:#1E003D;" d="M2335.978,1943.402
		c-270.516-58.272-550.899-87.378-814.531-164.82c-23.332-6.855-45.947-14.25-68.079-21.993
		c7.764,54.893,12.215,110.708,14.03,167.098c304.187,125.693,634.09,156.453,928.247,241.125
		C2369.161,2094.568,2350.834,2021.255,2335.978,1943.402"/>
	<g>
		<defs>
			<path id="SVGID_00000165234430926617608370000017770638779907838359_" d="M1467.399,1923.663
				c304.211,125.697,634.098,156.51,928.263,241.195c37.891,100.483,92.456,194.683,177.45,286.875l6.535,7.082
				c144.466,155.165,321.045,412.002,101.668,561.818c-3.414,2.328-6.812,4.568-10.197,6.719l-0.061,0.042l-0.159,0.1
				c-3.341,2.117-6.673,4.148-9.99,6.09l-0.028,0.019l-0.322,0.188c-3.202,1.872-6.388,3.652-9.57,5.367l-0.228,0.128l-0.468,0.25
				c-3.007,1.602-6.002,3.142-8.992,4.612l-1.241,0.595c-2.832,1.37-5.652,2.678-8.472,3.927l-1.624,0.717
				c-2.718,1.177-5.432,2.297-8.134,3.36l-1.88,0.742c-2.535,0.968-5.058,1.88-7.581,2.75l-2.808,0.953
				c-2.356,0.785-4.7,1.522-7.052,2.212c-134.31,39.585-248.368-67.427-335.722-281.353l-1.506-3.708
				c-34.583-85.46-60.331-175.087-81.604-264.675c0,0-48.161-208.678-184.607-211.357c-80.985-1.582-132.597,57.34-164.547,124.923
				c-34.383,72.543-55.245,173.173-62.854,292.432c-16.048,251.48-2.669,778.525-200.651,781.205
				c-197.97,2.678-256.84-259.508-206.002-631.385C1404.972,2573.137,1477.572,2239.32,1467.399,1923.663"/>
		</defs>
		<clipPath id="SVGID_00000139999030627235725740000009068071959780057279_">
			<use xlink:href="#SVGID_00000165234430926617608370000017770638779907838359_"  style="overflow:visible;"/>
		</clipPath>
		
			<linearGradient id="SVGID_00000130631043424712408740000004010774642355519907_" gradientUnits="userSpaceOnUse" x1="2969.3672" y1="4960.0269" x2="713.0385" y2="-925.8015">
			<stop  offset="0" style="stop-color:#0000FF"/>
			<stop  offset="1" style="stop-color:#00FFFF"/>
		</linearGradient>
		
			<rect x="1314.181" y="1923.663" style="clip-path:url(#SVGID_00000139999030627235725740000009068071959780057279_);fill:url(#SVGID_00000130631043424712408740000004010774642355519907_);" width="1586.511" height="1575.883"/>
	</g>
	<path style="opacity:0.3;fill-rule:evenodd;clip-rule:evenodd;fill:#020C6A;" d="M2228.683,2672.983
		c164.64,57.538,337.52,88.515,527.844,41.305c46.285,111.382,44.283,224.74-75.211,306.345c-3.414,2.328-6.812,4.568-10.197,6.719
		l-0.061,0.042l-0.159,0.1c-3.341,2.117-6.673,4.148-9.99,6.09l-0.028,0.019l-0.322,0.188c-3.202,1.872-6.388,3.652-9.57,5.367
		l-0.228,0.128l-0.468,0.25c-3.007,1.602-6.002,3.142-8.992,4.612l-1.241,0.595c-2.832,1.37-5.652,2.678-8.472,3.927l-1.624,0.717
		c-2.718,1.177-5.432,2.297-8.134,3.36l-1.88,0.742c-2.535,0.968-5.058,1.88-7.581,2.75l-2.808,0.953
		c-2.356,0.785-4.7,1.522-7.052,2.212c-134.31,39.585-248.368-67.427-335.722-281.353l-1.506-3.708
		C2251.831,2741.104,2239.718,2707.23,2228.683,2672.983 M1755.794,3039.88c-114.665-103.592-244.214-189.038-375.92-276.453
		c17.623-115.507,38.094-236.098,54.923-358.437c3.206,0.077,6.413,0.157,9.623,0.252c123.657,3.713,243.294,41.347,362.98,90.013
		c-18.506,62.098-30.387,136.663-35.73,220.408C1766.158,2802.035,1764.12,2920.905,1755.794,3039.88z"/>
	<path style="opacity:0.3;fill-rule:evenodd;clip-rule:evenodd;fill:#FFFFFF;" d="M1755.786,3039.97
		c-114.669-103.602-244.202-189.095-375.911-276.52c-5.265,34.483-10.278,68.542-14.856,102.033
		c-50.838,371.877,8.032,634.063,206.002,631.385C1700.985,3495.105,1739.868,3267.37,1755.786,3039.97"/>
	<path style="opacity:0.3;fill-rule:evenodd;clip-rule:evenodd;fill:#FFFFFF;" d="M1755.786,3039.97
		c-114.669-103.602-244.202-189.095-375.911-276.52c-3.243,21.255-6.38,42.335-9.391,63.232
		c142.037,87.35,271.501,182.99,379.712,281.82C1752.34,3085.807,1754.183,3062.888,1755.786,3039.97"/>
	<path style="opacity:0.3;fill-rule:evenodd;clip-rule:evenodd;fill:#020C6A;" d="M1766.394,2825.553
		c-117.969-65.642-242.891-122.088-367.065-186.27c-6.653,41.93-13.228,83.353-19.454,124.167
		c131.71,87.425,261.243,172.918,375.911,276.52C1760.974,2965.843,1763.725,2891.77,1766.394,2825.553"/>
	<path style="opacity:0.3;fill-rule:evenodd;clip-rule:evenodd;fill:#1E003D;" d="M1852.69,1854.852
		c-145.337,24.198-277.95,15.208-389.359-6.969c1.949,25.13,3.255,50.415,4.069,75.808
		c304.191,125.697,634.094,156.458,928.247,241.128c-36.654-97.247-57.699-200.385-75.529-313.313
		c-9.346-59.202-5.343-109.403,9.127-152.697c-92.017,34.242-190.637,73.577-303.992,112.355
		C1966.174,1831.377,1908.5,1845.558,1852.69,1854.852"/>
</g>
</svg>
